<svg 
id="logo"
width="664" height="62" viewBox="0 0 664 62" fill="none" xmlns="http://www.w3.org/2000/svg">
<mask id="path-1-outside-1" maskUnits="userSpaceOnUse" x="0.528381" y="0.167999" width="663" height="62" fill="black">
<rect fill="white" x="0.528381" y="0.167999" width="663" height="62"/>
<path d="M44.1924 5.81599V56H37.6404V33.248H12.0804V56H5.52838V5.81599H12.0804V27.848H37.6404V5.81599H44.1924Z"/>
<path d="M78.1319 56.504C73.4759 56.504 69.2279 55.424 65.3879 53.264C61.5479 51.056 58.4999 48.008 56.2439 44.12C54.0359 40.184 52.9319 35.768 52.9319 30.872C52.9319 25.976 54.0359 21.584 56.2439 17.696C58.4999 13.76 61.5479 10.712 65.3879 8.55199C69.2279 6.34399 73.4759 5.24 78.1319 5.24C82.8359 5.24 87.1079 6.34399 90.9479 8.55199C94.7879 10.712 97.812 13.736 100.02 17.624C102.228 21.512 103.332 25.928 103.332 30.872C103.332 35.816 102.228 40.232 100.02 44.12C97.812 48.008 94.7879 51.056 90.9479 53.264C87.1079 55.424 82.8359 56.504 78.1319 56.504ZM78.1319 50.816C81.6359 50.816 84.7799 50 87.5639 48.368C90.3959 46.736 92.6039 44.408 94.188 41.384C95.8199 38.36 96.6359 34.856 96.6359 30.872C96.6359 26.84 95.8199 23.336 94.188 20.36C92.6039 17.336 90.4199 15.008 87.6359 13.376C84.8519 11.744 81.6839 10.928 78.1319 10.928C74.5799 10.928 71.4119 11.744 68.6279 13.376C65.8439 15.008 63.6359 17.336 62.0039 20.36C60.4199 23.336 59.6279 26.84 59.6279 30.872C59.6279 34.856 60.4199 38.36 62.0039 41.384C63.6359 44.408 65.8439 46.736 68.6279 48.368C71.4599 50 74.6279 50.816 78.1319 50.816Z"/>
<path d="M142.87 5.81599V11.144H129.19V56H122.638V11.144H108.886V5.81599H142.87Z"/>
<path d="M157.487 11.144V27.92H175.775V33.32H157.487V50.6H177.935V56H150.935V5.744H177.935V11.144H157.487Z"/>
<path d="M194.401 50.672H211.969V56H187.849V5.81599H194.401V50.672Z"/>
<path d="M245.351 56L233.399 35.48H225.479V56H218.927V5.81599H235.127C238.919 5.81599 242.111 6.464 244.703 7.76C247.343 9.056 249.311 10.808 250.607 13.016C251.903 15.224 252.551 17.744 252.551 20.576C252.551 24.032 251.543 27.08 249.527 29.72C247.559 32.36 244.583 34.112 240.599 34.976L253.199 56H245.351ZM225.479 30.224H235.127C238.679 30.224 241.343 29.36 243.119 27.632C244.895 25.856 245.783 23.504 245.783 20.576C245.783 17.6 244.895 15.296 243.119 13.664C241.391 12.032 238.727 11.216 235.127 11.216H225.479V30.224Z"/>
<path d="M285.483 56.504C280.827 56.504 276.58 55.424 272.74 53.264C268.9 51.056 265.851 48.008 263.595 44.12C261.387 40.184 260.284 35.768 260.284 30.872C260.284 25.976 261.387 21.584 263.595 17.696C265.851 13.76 268.9 10.712 272.74 8.55199C276.58 6.34399 280.827 5.24 285.483 5.24C290.187 5.24 294.459 6.34399 298.299 8.55199C302.139 10.712 305.163 13.736 307.371 17.624C309.579 21.512 310.684 25.928 310.684 30.872C310.684 35.816 309.579 40.232 307.371 44.12C305.163 48.008 302.139 51.056 298.299 53.264C294.459 55.424 290.187 56.504 285.483 56.504ZM285.483 50.816C288.987 50.816 292.131 50 294.915 48.368C297.747 46.736 299.955 44.408 301.539 41.384C303.171 38.36 303.987 34.856 303.987 30.872C303.987 26.84 303.171 23.336 301.539 20.36C299.955 17.336 297.771 15.008 294.987 13.376C292.203 11.744 289.035 10.928 285.483 10.928C281.931 10.928 278.763 11.744 275.979 13.376C273.195 15.008 270.987 17.336 269.355 20.36C267.771 23.336 266.979 26.84 266.979 30.872C266.979 34.856 267.771 38.36 269.355 41.384C270.987 44.408 273.195 46.736 275.979 48.368C278.811 50 281.979 50.816 285.483 50.816Z"/>
<path d="M342.085 56.504C337.429 56.504 333.181 55.424 329.341 53.264C325.501 51.056 322.453 48.008 320.197 44.12C317.989 40.184 316.885 35.768 316.885 30.872C316.885 25.976 317.989 21.584 320.197 17.696C322.453 13.76 325.501 10.712 329.341 8.55199C333.181 6.34399 337.429 5.24 342.085 5.24C346.789 5.24 351.061 6.34399 354.901 8.55199C358.741 10.712 361.765 13.736 363.973 17.624C366.181 21.512 367.285 25.928 367.285 30.872C367.285 35.816 366.181 40.232 363.973 44.12C361.765 48.008 358.741 51.056 354.901 53.264C351.061 55.424 346.789 56.504 342.085 56.504ZM342.085 50.816C345.589 50.816 348.733 50 351.517 48.368C354.349 46.736 356.557 44.408 358.141 41.384C359.773 38.36 360.589 34.856 360.589 30.872C360.589 26.84 359.773 23.336 358.141 20.36C356.557 17.336 354.373 15.008 351.589 13.376C348.805 11.744 345.637 10.928 342.085 10.928C338.533 10.928 335.365 11.744 332.581 13.376C329.797 15.008 327.589 17.336 325.957 20.36C324.373 23.336 323.581 26.84 323.581 30.872C323.581 34.856 324.373 38.36 325.957 41.384C327.589 44.408 329.797 46.736 332.581 48.368C335.413 50 338.581 50.816 342.085 50.816Z"/>
<path d="M426.839 6.17599V56H420.287V18.848L403.727 56H399.119L382.487 18.776V56H375.935V6.17599H382.991L401.423 47.36L419.855 6.17599H426.839Z"/>
<path d="M453.862 56.504C450.55 56.504 447.574 55.928 444.934 54.776C442.342 53.576 440.302 51.944 438.814 49.88C437.326 47.768 436.558 45.344 436.51 42.608H443.494C443.734 44.96 444.694 46.952 446.374 48.584C448.102 50.168 450.598 50.96 453.862 50.96C456.982 50.96 459.43 50.192 461.206 48.656C463.03 47.072 463.942 45.056 463.942 42.608C463.942 40.688 463.414 39.128 462.358 37.928C461.302 36.728 459.982 35.816 458.398 35.192C456.814 34.568 454.678 33.896 451.99 33.176C448.678 32.312 446.014 31.448 443.998 30.584C442.03 29.72 440.326 28.376 438.886 26.552C437.494 24.68 436.798 22.184 436.798 19.064C436.798 16.328 437.494 13.904 438.886 11.792C440.278 9.68 442.222 8.048 444.718 6.896C447.262 5.744 450.166 5.168 453.43 5.168C458.134 5.168 461.974 6.344 464.95 8.696C467.974 11.048 469.678 14.168 470.062 18.056H462.862C462.622 16.136 461.614 14.456 459.838 13.016C458.062 11.528 455.71 10.784 452.782 10.784C450.046 10.784 447.814 11.504 446.086 12.944C444.358 14.336 443.494 16.304 443.494 18.848C443.494 20.672 443.998 22.16 445.006 23.312C446.062 24.464 447.334 25.352 448.822 25.976C450.358 26.552 452.494 27.224 455.23 27.992C458.542 28.904 461.206 29.816 463.222 30.728C465.238 31.592 466.966 32.96 468.406 34.832C469.846 36.656 470.566 39.152 470.566 42.32C470.566 44.768 469.918 47.072 468.622 49.232C467.326 51.392 465.406 53.144 462.862 54.488C460.318 55.832 457.318 56.504 453.862 56.504Z"/>
<path d="M482.296 56.432C481.048 56.432 479.992 56 479.128 55.136C478.264 54.272 477.832 53.216 477.832 51.968C477.832 50.72 478.264 49.664 479.128 48.8C479.992 47.936 481.048 47.504 482.296 47.504C483.496 47.504 484.504 47.936 485.32 48.8C486.184 49.664 486.616 50.72 486.616 51.968C486.616 53.216 486.184 54.272 485.32 55.136C484.504 56 483.496 56.432 482.296 56.432Z"/>
<path d="M492.877 30.872C492.877 25.976 493.981 21.584 496.189 17.696C498.397 13.76 501.397 10.688 505.189 8.48C509.029 6.272 513.277 5.168 517.933 5.168C523.405 5.168 528.181 6.488 532.261 9.128C536.341 11.768 539.317 15.512 541.189 20.36H533.341C531.949 17.336 529.933 15.008 527.293 13.376C524.701 11.744 521.581 10.928 517.933 10.928C514.429 10.928 511.285 11.744 508.501 13.376C505.717 15.008 503.533 17.336 501.949 20.36C500.365 23.336 499.573 26.84 499.573 30.872C499.573 34.856 500.365 38.36 501.949 41.384C503.533 44.36 505.717 46.664 508.501 48.296C511.285 49.928 514.429 50.744 517.933 50.744C521.581 50.744 524.701 49.952 527.293 48.368C529.933 46.736 531.949 44.408 533.341 41.384H541.189C539.317 46.184 536.341 49.904 532.261 52.544C528.181 55.136 523.405 56.432 517.933 56.432C513.277 56.432 509.029 55.352 505.189 53.192C501.397 50.984 498.397 47.936 496.189 44.048C493.981 40.16 492.877 35.768 492.877 30.872Z"/>
<path d="M573.694 56.504C569.038 56.504 564.79 55.424 560.95 53.264C557.11 51.056 554.062 48.008 551.806 44.12C549.598 40.184 548.494 35.768 548.494 30.872C548.494 25.976 549.598 21.584 551.806 17.696C554.062 13.76 557.11 10.712 560.95 8.55199C564.79 6.34399 569.038 5.24 573.694 5.24C578.398 5.24 582.67 6.34399 586.51 8.55199C590.35 10.712 593.374 13.736 595.582 17.624C597.79 21.512 598.894 25.928 598.894 30.872C598.894 35.816 597.79 40.232 595.582 44.12C593.374 48.008 590.35 51.056 586.51 53.264C582.67 55.424 578.398 56.504 573.694 56.504ZM573.694 50.816C577.198 50.816 580.342 50 583.126 48.368C585.958 46.736 588.166 44.408 589.75 41.384C591.382 38.36 592.198 34.856 592.198 30.872C592.198 26.84 591.382 23.336 589.75 20.36C588.166 17.336 585.982 15.008 583.198 13.376C580.414 11.744 577.246 10.928 573.694 10.928C570.142 10.928 566.974 11.744 564.19 13.376C561.406 15.008 559.198 17.336 557.566 20.36C555.982 23.336 555.19 26.84 555.19 30.872C555.19 34.856 555.982 38.36 557.566 41.384C559.198 44.408 561.406 46.736 564.19 48.368C567.022 50 570.19 50.816 573.694 50.816Z"/>
<path d="M658.448 6.17599V56H651.896V18.848L635.336 56H630.728L614.096 18.776V56H607.544V6.17599H614.6L633.032 47.36L651.464 6.17599H658.448Z"/>
</mask>
<path d="M44.1924 5.81599V56H37.6404V33.248H12.0804V56H5.52838V5.81599H12.0804V27.848H37.6404V5.81599H44.1924Z" stroke="white" stroke-width="10" mask="url(#path-1-outside-1)"/>
<path d="M78.1319 56.504C73.4759 56.504 69.2279 55.424 65.3879 53.264C61.5479 51.056 58.4999 48.008 56.2439 44.12C54.0359 40.184 52.9319 35.768 52.9319 30.872C52.9319 25.976 54.0359 21.584 56.2439 17.696C58.4999 13.76 61.5479 10.712 65.3879 8.55199C69.2279 6.34399 73.4759 5.24 78.1319 5.24C82.8359 5.24 87.1079 6.34399 90.9479 8.55199C94.7879 10.712 97.812 13.736 100.02 17.624C102.228 21.512 103.332 25.928 103.332 30.872C103.332 35.816 102.228 40.232 100.02 44.12C97.812 48.008 94.7879 51.056 90.9479 53.264C87.1079 55.424 82.8359 56.504 78.1319 56.504ZM78.1319 50.816C81.6359 50.816 84.7799 50 87.5639 48.368C90.3959 46.736 92.6039 44.408 94.188 41.384C95.8199 38.36 96.6359 34.856 96.6359 30.872C96.6359 26.84 95.8199 23.336 94.188 20.36C92.6039 17.336 90.4199 15.008 87.6359 13.376C84.8519 11.744 81.6839 10.928 78.1319 10.928C74.5799 10.928 71.4119 11.744 68.6279 13.376C65.8439 15.008 63.6359 17.336 62.0039 20.36C60.4199 23.336 59.6279 26.84 59.6279 30.872C59.6279 34.856 60.4199 38.36 62.0039 41.384C63.6359 44.408 65.8439 46.736 68.6279 48.368C71.4599 50 74.6279 50.816 78.1319 50.816Z" stroke="white" stroke-width="10" mask="url(#path-1-outside-1)"/>
<path d="M142.87 5.81599V11.144H129.19V56H122.638V11.144H108.886V5.81599H142.87Z" stroke="white" stroke-width="10" mask="url(#path-1-outside-1)"/>
<path d="M157.487 11.144V27.92H175.775V33.32H157.487V50.6H177.935V56H150.935V5.744H177.935V11.144H157.487Z" stroke="white" stroke-width="10" mask="url(#path-1-outside-1)"/>
<path d="M194.401 50.672H211.969V56H187.849V5.81599H194.401V50.672Z" stroke="white" stroke-width="10" mask="url(#path-1-outside-1)"/>
<path d="M245.351 56L233.399 35.48H225.479V56H218.927V5.81599H235.127C238.919 5.81599 242.111 6.464 244.703 7.76C247.343 9.056 249.311 10.808 250.607 13.016C251.903 15.224 252.551 17.744 252.551 20.576C252.551 24.032 251.543 27.08 249.527 29.72C247.559 32.36 244.583 34.112 240.599 34.976L253.199 56H245.351ZM225.479 30.224H235.127C238.679 30.224 241.343 29.36 243.119 27.632C244.895 25.856 245.783 23.504 245.783 20.576C245.783 17.6 244.895 15.296 243.119 13.664C241.391 12.032 238.727 11.216 235.127 11.216H225.479V30.224Z" stroke="white" stroke-width="10" mask="url(#path-1-outside-1)"/>
<path d="M285.483 56.504C280.827 56.504 276.58 55.424 272.74 53.264C268.9 51.056 265.851 48.008 263.595 44.12C261.387 40.184 260.284 35.768 260.284 30.872C260.284 25.976 261.387 21.584 263.595 17.696C265.851 13.76 268.9 10.712 272.74 8.55199C276.58 6.34399 280.827 5.24 285.483 5.24C290.187 5.24 294.459 6.34399 298.299 8.55199C302.139 10.712 305.163 13.736 307.371 17.624C309.579 21.512 310.684 25.928 310.684 30.872C310.684 35.816 309.579 40.232 307.371 44.12C305.163 48.008 302.139 51.056 298.299 53.264C294.459 55.424 290.187 56.504 285.483 56.504ZM285.483 50.816C288.987 50.816 292.131 50 294.915 48.368C297.747 46.736 299.955 44.408 301.539 41.384C303.171 38.36 303.987 34.856 303.987 30.872C303.987 26.84 303.171 23.336 301.539 20.36C299.955 17.336 297.771 15.008 294.987 13.376C292.203 11.744 289.035 10.928 285.483 10.928C281.931 10.928 278.763 11.744 275.979 13.376C273.195 15.008 270.987 17.336 269.355 20.36C267.771 23.336 266.979 26.84 266.979 30.872C266.979 34.856 267.771 38.36 269.355 41.384C270.987 44.408 273.195 46.736 275.979 48.368C278.811 50 281.979 50.816 285.483 50.816Z" stroke="white" stroke-width="10" mask="url(#path-1-outside-1)"/>
<path d="M342.085 56.504C337.429 56.504 333.181 55.424 329.341 53.264C325.501 51.056 322.453 48.008 320.197 44.12C317.989 40.184 316.885 35.768 316.885 30.872C316.885 25.976 317.989 21.584 320.197 17.696C322.453 13.76 325.501 10.712 329.341 8.55199C333.181 6.34399 337.429 5.24 342.085 5.24C346.789 5.24 351.061 6.34399 354.901 8.55199C358.741 10.712 361.765 13.736 363.973 17.624C366.181 21.512 367.285 25.928 367.285 30.872C367.285 35.816 366.181 40.232 363.973 44.12C361.765 48.008 358.741 51.056 354.901 53.264C351.061 55.424 346.789 56.504 342.085 56.504ZM342.085 50.816C345.589 50.816 348.733 50 351.517 48.368C354.349 46.736 356.557 44.408 358.141 41.384C359.773 38.36 360.589 34.856 360.589 30.872C360.589 26.84 359.773 23.336 358.141 20.36C356.557 17.336 354.373 15.008 351.589 13.376C348.805 11.744 345.637 10.928 342.085 10.928C338.533 10.928 335.365 11.744 332.581 13.376C329.797 15.008 327.589 17.336 325.957 20.36C324.373 23.336 323.581 26.84 323.581 30.872C323.581 34.856 324.373 38.36 325.957 41.384C327.589 44.408 329.797 46.736 332.581 48.368C335.413 50 338.581 50.816 342.085 50.816Z" stroke="white" stroke-width="10" mask="url(#path-1-outside-1)"/>
<path d="M426.839 6.17599V56H420.287V18.848L403.727 56H399.119L382.487 18.776V56H375.935V6.17599H382.991L401.423 47.36L419.855 6.17599H426.839Z" stroke="white" stroke-width="10" mask="url(#path-1-outside-1)"/>
<path d="M453.862 56.504C450.55 56.504 447.574 55.928 444.934 54.776C442.342 53.576 440.302 51.944 438.814 49.88C437.326 47.768 436.558 45.344 436.51 42.608H443.494C443.734 44.96 444.694 46.952 446.374 48.584C448.102 50.168 450.598 50.96 453.862 50.96C456.982 50.96 459.43 50.192 461.206 48.656C463.03 47.072 463.942 45.056 463.942 42.608C463.942 40.688 463.414 39.128 462.358 37.928C461.302 36.728 459.982 35.816 458.398 35.192C456.814 34.568 454.678 33.896 451.99 33.176C448.678 32.312 446.014 31.448 443.998 30.584C442.03 29.72 440.326 28.376 438.886 26.552C437.494 24.68 436.798 22.184 436.798 19.064C436.798 16.328 437.494 13.904 438.886 11.792C440.278 9.68 442.222 8.048 444.718 6.896C447.262 5.744 450.166 5.168 453.43 5.168C458.134 5.168 461.974 6.344 464.95 8.696C467.974 11.048 469.678 14.168 470.062 18.056H462.862C462.622 16.136 461.614 14.456 459.838 13.016C458.062 11.528 455.71 10.784 452.782 10.784C450.046 10.784 447.814 11.504 446.086 12.944C444.358 14.336 443.494 16.304 443.494 18.848C443.494 20.672 443.998 22.16 445.006 23.312C446.062 24.464 447.334 25.352 448.822 25.976C450.358 26.552 452.494 27.224 455.23 27.992C458.542 28.904 461.206 29.816 463.222 30.728C465.238 31.592 466.966 32.96 468.406 34.832C469.846 36.656 470.566 39.152 470.566 42.32C470.566 44.768 469.918 47.072 468.622 49.232C467.326 51.392 465.406 53.144 462.862 54.488C460.318 55.832 457.318 56.504 453.862 56.504Z" stroke="white" stroke-width="10" mask="url(#path-1-outside-1)"/>
<path d="M482.296 56.432C481.048 56.432 479.992 56 479.128 55.136C478.264 54.272 477.832 53.216 477.832 51.968C477.832 50.72 478.264 49.664 479.128 48.8C479.992 47.936 481.048 47.504 482.296 47.504C483.496 47.504 484.504 47.936 485.32 48.8C486.184 49.664 486.616 50.72 486.616 51.968C486.616 53.216 486.184 54.272 485.32 55.136C484.504 56 483.496 56.432 482.296 56.432Z" stroke="white" stroke-width="10" mask="url(#path-1-outside-1)"/>
<path d="M492.877 30.872C492.877 25.976 493.981 21.584 496.189 17.696C498.397 13.76 501.397 10.688 505.189 8.48C509.029 6.272 513.277 5.168 517.933 5.168C523.405 5.168 528.181 6.488 532.261 9.128C536.341 11.768 539.317 15.512 541.189 20.36H533.341C531.949 17.336 529.933 15.008 527.293 13.376C524.701 11.744 521.581 10.928 517.933 10.928C514.429 10.928 511.285 11.744 508.501 13.376C505.717 15.008 503.533 17.336 501.949 20.36C500.365 23.336 499.573 26.84 499.573 30.872C499.573 34.856 500.365 38.36 501.949 41.384C503.533 44.36 505.717 46.664 508.501 48.296C511.285 49.928 514.429 50.744 517.933 50.744C521.581 50.744 524.701 49.952 527.293 48.368C529.933 46.736 531.949 44.408 533.341 41.384H541.189C539.317 46.184 536.341 49.904 532.261 52.544C528.181 55.136 523.405 56.432 517.933 56.432C513.277 56.432 509.029 55.352 505.189 53.192C501.397 50.984 498.397 47.936 496.189 44.048C493.981 40.16 492.877 35.768 492.877 30.872Z" stroke="white" stroke-width="10" mask="url(#path-1-outside-1)"/>
<path d="M573.694 56.504C569.038 56.504 564.79 55.424 560.95 53.264C557.11 51.056 554.062 48.008 551.806 44.12C549.598 40.184 548.494 35.768 548.494 30.872C548.494 25.976 549.598 21.584 551.806 17.696C554.062 13.76 557.11 10.712 560.95 8.55199C564.79 6.34399 569.038 5.24 573.694 5.24C578.398 5.24 582.67 6.34399 586.51 8.55199C590.35 10.712 593.374 13.736 595.582 17.624C597.79 21.512 598.894 25.928 598.894 30.872C598.894 35.816 597.79 40.232 595.582 44.12C593.374 48.008 590.35 51.056 586.51 53.264C582.67 55.424 578.398 56.504 573.694 56.504ZM573.694 50.816C577.198 50.816 580.342 50 583.126 48.368C585.958 46.736 588.166 44.408 589.75 41.384C591.382 38.36 592.198 34.856 592.198 30.872C592.198 26.84 591.382 23.336 589.75 20.36C588.166 17.336 585.982 15.008 583.198 13.376C580.414 11.744 577.246 10.928 573.694 10.928C570.142 10.928 566.974 11.744 564.19 13.376C561.406 15.008 559.198 17.336 557.566 20.36C555.982 23.336 555.19 26.84 555.19 30.872C555.19 34.856 555.982 38.36 557.566 41.384C559.198 44.408 561.406 46.736 564.19 48.368C567.022 50 570.19 50.816 573.694 50.816Z" stroke="white" stroke-width="10" mask="url(#path-1-outside-1)"/>
<path d="M658.448 6.17599V56H651.896V18.848L635.336 56H630.728L614.096 18.776V56H607.544V6.17599H614.6L633.032 47.36L651.464 6.17599H658.448Z" stroke="white" stroke-width="10" mask="url(#path-1-outside-1)"/>
</svg>
